<?xml version="1.0" encoding="UTF-8" standalone="no"?>
<!-- Created with Inkscape (http://www.inkscape.org/) -->

<svg
   xmlns:dc="http://purl.org/dc/elements/1.1/"
   xmlns:cc="http://creativecommons.org/ns#"
   xmlns:rdf="http://www.w3.org/1999/02/22-rdf-syntax-ns#"
   xmlns:svg="http://www.w3.org/2000/svg"
   xmlns="http://www.w3.org/2000/svg"
   xmlns:sodipodi="http://sodipodi.sourceforge.net/DTD/sodipodi-0.dtd"
   xmlns:inkscape="http://www.inkscape.org/namespaces/inkscape"
   width="200"
   height="31"
   id="svg2"
   version="1.1"
   inkscape:version="0.48.4 r9939"
   sodipodi:docname="logo2.svg">
  <defs
     id="defs4" />
  <sodipodi:namedview
     id="base"
     pagecolor="#ffffff"
     bordercolor="#666666"
     borderopacity="1.0"
     inkscape:pageopacity="0.0"
     inkscape:pageshadow="2"
     inkscape:zoom="3.6265432"
     inkscape:cx="162"
     inkscape:cy="25"
     inkscape:document-units="px"
     inkscape:current-layer="layer1"
     showgrid="false"
     inkscape:window-width="1366"
     inkscape:window-height="744"
     inkscape:window-x="0"
     inkscape:window-y="24"
     inkscape:window-maximized="1" />
  <metadata
     id="metadata7">
    <rdf:RDF>
      <cc:Work
         rdf:about="">
        <dc:format>image/svg+xml</dc:format>
        <dc:type
           rdf:resource="http://purl.org/dc/dcmitype/StillImage" />
        <dc:title></dc:title>
      </cc:Work>
    </rdf:RDF>
  </metadata>
  <g
     inkscape:label="Camada 1"
     inkscape:groupmode="layer"
     id="layer1"
     transform="translate(0,-1021.3622)">
    <g
       id="g4838"
       transform="matrix(1.7601393,0,0,1.7601393,-0.33002587,-738.90153)"
       style="fill:#009688;fill-opacity:1">
      <path
         id="rect3778"
         transform="translate(0,995.36218)"
         d="m 0.1875,5.09375 0,17.25 22.84375,0 0,-17.25 -22.84375,0 z M 10.3125,6.5 l 12,0 0,2.34375 -4.625,0 0,12.6875 -2.75,0 0,-12.6875 -4.625,0 0,-2.34375 z m -9,0.0625 7.75,0 0,2.15625 -7.75,0 0,-2.15625 z m 0,3.46875 8.90625,0 0,2.125 -8.90625,0 0,-2.125 z m 0,3.78125 11.03125,0 0,2.125 -11.03125,0 0,-2.125 z m 0,3.75 8.90625,0 0,2.15625 -8.90625,0 0,-2.15625 z"
         style="fill:#009688;fill-opacity:1;stroke:none"
         inkscape:connector-curvature="0" />
      <path
         d="m 22.443602,1011.2705 c 0,-0.9987 0.144721,-1.8741 0.434162,-2.6266 0.303912,-0.7526 0.701888,-1.3748 1.19394,-1.867 0.492045,-0.5064 1.056453,-0.8828 1.693225,-1.1288 0.636768,-0.2605 1.28801,-0.3907 1.953725,-0.3908 1.56297,10e-5 2.778621,0.4849 3.646947,1.4545 0.882785,0.9696 1.324178,2.4169 1.32419,4.3417 -1.2e-5,0.1451 -0.0073,0.311 -0.0217,0.4992 -1.2e-5,0.1737 -0.0073,0.3329 -0.02171,0.4776 l -7.48927,0 c 0.07235,0.9117 0.390744,1.6209 0.955153,2.1274 0.578876,0.492 1.411017,0.738 2.496423,0.738 0.63676,0 1.215644,-0.058 1.736641,-0.1736 0.535456,-0.1154 0.955144,-0.2389 1.259066,-0.369 l 0.347329,2.1491 c -0.144721,0.072 -0.347338,0.1519 -0.607826,0.2388 -0.246033,0.072 -0.535472,0.1376 -0.86832,0.1954 -0.318392,0.072 -0.665721,0.1302 -1.041985,0.1736 -0.376276,0.043 -0.759786,0.065 -1.150527,0.065 -0.998573,0 -1.866895,-0.145 -2.60496,-0.4341 -0.738074,-0.3039 -1.345899,-0.7164 -1.823476,-1.2375 -0.477576,-0.5354 -0.832139,-1.1577 -1.063694,-1.8668 -0.231554,-0.7236 -0.347327,-1.5122 -0.347327,-2.3662 m 7.619517,-1.1722 c -5e-6,-0.3619 -0.05064,-0.7019 -0.151957,-1.0203 -0.101306,-0.3329 -0.253267,-0.615 -0.455867,-0.8467 -0.188145,-0.246 -0.426934,-0.434 -0.716365,-0.5644 -0.274975,-0.145 -0.60783,-0.217 -0.998569,-0.217 -0.405221,0 -0.759788,0.079 -1.063695,0.2388 -0.303917,0.1451 -0.564413,0.3402 -0.781488,0.5862 -0.202613,0.246 -0.361801,0.5281 -0.477577,0.8467 -0.115783,0.3182 -0.195371,0.6438 -0.238787,0.9767 l 4.884305,0"
         style="font-size:40px;font-style:normal;font-variant:normal;font-weight:500;font-stretch:normal;line-height:125%;letter-spacing:0px;word-spacing:0px;fill:#009688;fill-opacity:1;stroke:none;font-family:Ubuntu;-inkscape-font-specification:Ubuntu Medium"
         id="path2994"
         inkscape:connector-curvature="0" />
      <path
         d="m 33.612838,1005.9086 c 0.506521,-0.1451 1.164995,-0.2823 1.975432,-0.4124 0.810432,-0.1303 1.707693,-0.1954 2.691794,-0.1954 0.926207,0 1.700455,0.1303 2.32276,0.3908 0.622287,0.246 1.114338,0.6005 1.476145,1.0637 0.376266,0.4485 0.636762,0.9985 0.781491,1.6498 0.159184,0.6368 0.238775,1.3386 0.238787,2.1056 l 0,6.3821 -2.626672,0 0,-5.9697 c -4e-6,-0.6078 -0.04341,-1.1215 -0.130244,-1.5412 -0.07237,-0.4341 -0.202617,-0.7815 -0.390746,-1.0421 -0.173668,-0.2748 -0.419692,-0.4702 -0.738072,-0.586 -0.303917,-0.1302 -0.680189,-0.1954 -1.128817,-0.1954 -0.332861,0 -0.680188,0.022 -1.041986,0.065 -0.361801,0.043 -0.629538,0.078 -0.803197,0.108 l 0,9.161 -2.626672,0 0,-10.9845"
         style="font-size:40px;font-style:normal;font-variant:normal;font-weight:500;font-stretch:normal;line-height:125%;letter-spacing:0px;word-spacing:0px;fill:#009688;fill-opacity:1;stroke:none;font-family:Ubuntu;-inkscape-font-specification:Ubuntu Medium"
         id="path2996"
         inkscape:connector-curvature="0" />
      <path
         d="m 46.553994,1011.1836 c 0,1.1579 0.274965,2.0695 0.824905,2.7352 0.549934,0.6513 1.309715,0.9769 2.279343,0.9769 0.419681,0 0.774248,-0.015 1.063694,-0.043 0.303906,-0.043 0.549927,-0.086 0.738073,-0.1302 l 0,-6.5124 c -0.231559,-0.1593 -0.542706,-0.3041 -0.933448,-0.4343 -0.376276,-0.1451 -0.781494,-0.217 -1.215649,-0.217 -0.955156,0 -1.657049,0.3256 -2.105677,0.9769 -0.434161,0.6512 -0.651241,1.534 -0.651241,2.6483 m 7.532684,5.3619 c -0.521001,0.1592 -1.179478,0.3039 -1.97543,0.4342 -0.781494,0.1302 -1.606399,0.1952 -2.474715,0.1952 -0.897268,0 -1.700465,-0.1376 -2.40959,-0.4124 -0.70913,-0.2748 -1.316955,-0.6656 -1.823475,-1.1722 -0.492049,-0.521 -0.875555,-1.1433 -1.150525,-1.867 -0.260496,-0.7378 -0.390745,-1.5629 -0.390745,-2.4746 0,-0.8971 0.108544,-1.7077 0.325621,-2.4312 0.231553,-0.7382 0.564408,-1.3676 0.998569,-1.8887 0.43416,-0.521 0.962387,-0.919 1.584686,-1.1939 0.622293,-0.2895 1.338656,-0.4341 2.149096,-0.4341 0.549929,0 1.034744,0.065 1.454436,0.1953 0.419681,0.1303 0.781485,0.2749 1.085403,0.4342 l 0,-5.4488 2.626669,-0.4342 0,16.4982"
         style="font-size:40px;font-style:normal;font-variant:normal;font-weight:500;font-stretch:normal;line-height:125%;letter-spacing:0px;word-spacing:0px;fill:#009688;fill-opacity:1;stroke:none;font-family:Ubuntu;-inkscape-font-specification:Ubuntu Medium"
         id="path2998"
         inkscape:connector-curvature="0" />
      <path
         d="m 59.576894,1015.0478 c 0.810428,0 1.425487,-0.043 1.845184,-0.1303 l 0,-2.9089 c -0.144721,-0.043 -0.354572,-0.086 -0.629533,-0.1303 -0.274976,-0.043 -0.578888,-0.065 -0.911738,-0.065 -0.289449,0 -0.586122,0.022 -0.890027,0.065 -0.289445,0.043 -0.557181,0.1229 -0.803198,0.2388 -0.23156,0.1154 -0.419693,0.2822 -0.564409,0.4994 -0.144721,0.2025 -0.217085,0.463 -0.21708,0.7814 -5e-6,0.6223 0.195366,1.0564 0.586116,1.3024 0.390741,0.2316 0.918966,0.3475 1.584685,0.3475 m -0.21708,-9.7905 c 0.868318,10e-5 1.599149,0.108 2.192513,0.3256 0.593344,0.2172 1.063682,0.5211 1.411021,0.9119 0.361792,0.3907 0.615047,0.8683 0.75978,1.4327 0.15918,0.55 0.238777,1.1578 0.238788,1.8234 l 0,6.8814 c -0.405229,0.086 -1.020289,0.1882 -1.845182,0.3041 -0.810441,0.1302 -1.729412,0.1952 -2.75692,0.1952 -0.680188,0 -1.302487,-0.065 -1.866889,-0.1952 -0.564413,-0.1303 -1.049226,-0.3402 -1.454436,-0.6296 -0.390751,-0.2895 -0.701898,-0.6658 -0.933447,-1.1288 -0.217081,-0.4631 -0.325621,-1.0348 -0.325621,-1.715 0,-0.6513 0.123006,-1.2012 0.369036,-1.6498 0.260498,-0.4487 0.607819,-0.8104 1.041987,-1.0853 0.434155,-0.2895 0.933439,-0.492 1.497853,-0.6079 0.578878,-0.1303 1.179462,-0.1954 1.801766,-0.1954 0.289435,0 0.593345,0.022 0.911737,0.065 0.318376,0.028 0.658469,0.086 1.020278,0.1738 l 0,-0.4342 c -1.2e-5,-0.304 -0.03621,-0.5934 -0.108545,-0.8684 -0.07237,-0.2749 -0.20262,-0.5137 -0.390747,-0.7163 -0.173669,-0.2171 -0.412458,-0.3835 -0.716363,-0.4993 -0.289451,-0.1154 -0.658486,-0.1736 -1.107111,-0.1736 -0.607831,0 -1.165003,0.043 -1.671518,0.1303 -0.506525,0.086 -0.918976,0.1879 -1.237356,0.3037 l -0.325622,-2.1274 c 0.332856,-0.1154 0.817666,-0.2315 1.454438,-0.3472 0.636762,-0.1155 1.316951,-0.1737 2.040555,-0.1738"
         style="font-size:40px;font-style:normal;font-variant:normal;font-weight:500;font-stretch:normal;line-height:125%;letter-spacing:0px;word-spacing:0px;fill:#009688;fill-opacity:1;stroke:none;font-family:Ubuntu;-inkscape-font-specification:Ubuntu Medium"
         id="path3000"
         inkscape:connector-curvature="0" />
      <path
         d="m 70.032256,1016.8928 0,-15.0436 9.508112,0 0,2.3228 -6.772899,0 0,3.8423 6.013122,0 0,2.3228 -6.013122,0 0,6.5557 -2.735213,0"
         style="font-size:40px;font-style:normal;font-variant:normal;font-weight:500;font-stretch:normal;line-height:125%;letter-spacing:0px;word-spacing:0px;fill:#009688;fill-opacity:1;stroke:none;font-family:Ubuntu;-inkscape-font-specification:Ubuntu Medium"
         id="path3002"
         inkscape:connector-curvature="0" />
      <path
         d="m 90.491399,1011.2054 c -1e-5,0.8972 -0.130259,1.7148 -0.390742,2.453 -0.260511,0.7381 -0.629546,1.3676 -1.107116,1.8886 -0.477587,0.5209 -1.056471,0.9262 -1.736642,1.2156 -0.665721,0.2895 -1.403791,0.4341 -2.214212,0.4341 -0.810448,0 -1.54851,-0.145 -2.214222,-0.4341 -0.66572,-0.2894 -1.237366,-0.6947 -1.714935,-1.2156 -0.477579,-0.521 -0.853854,-1.1505 -1.128813,-1.8886 -0.260501,-0.7382 -0.390751,-1.5558 -0.390751,-2.453 0,-0.8973 0.130244,-1.7077 0.390751,-2.4313 0.274959,-0.7381 0.651234,-1.3675 1.128813,-1.8886 0.492047,-0.521 1.070921,-0.919 1.736642,-1.1939 0.665712,-0.2895 1.396544,-0.4342 2.192515,-0.4343 0.795943,10e-5 1.526785,0.1451 2.192505,0.4343 0.680171,0.2749 1.259055,0.6729 1.736643,1.1939 0.47756,0.5211 0.846605,1.1505 1.107115,1.8886 0.27495,0.7236 0.412439,1.534 0.412449,2.4313 m -2.6918,0 c -1e-5,-1.1288 -0.246033,-2.0189 -0.738071,-2.67 -0.477588,-0.6658 -1.150539,-0.9986 -2.018841,-0.9987 -0.86833,10e-5 -1.54851,0.3329 -2.040557,0.9987 -0.477588,0.6511 -0.716373,1.5412 -0.716364,2.67 -9e-6,1.1433 0.238776,2.0477 0.716364,2.7134 0.492047,0.6658 1.172227,0.9987 2.040557,0.9987 0.868302,0 1.541253,-0.3329 2.018841,-0.9987 0.492038,-0.6657 0.738061,-1.5701 0.738071,-2.7134"
         style="font-size:40px;font-style:normal;font-variant:normal;font-weight:500;font-stretch:normal;line-height:125%;letter-spacing:0px;word-spacing:0px;fill:#009688;fill-opacity:1;stroke:none;font-family:Ubuntu;-inkscape-font-specification:Ubuntu Medium"
         id="path3004"
         inkscape:connector-curvature="0" />
      <path
         d="m 97.825776,1007.9057 c -0.217087,-0.072 -0.521001,-0.1451 -0.911735,-0.217 -0.376283,-0.086 -0.817679,-0.1303 -1.324193,-0.1303 -0.289447,0 -0.600601,0.028 -0.933443,0.086 -0.318392,0.058 -0.542709,0.108 -0.67295,0.152 l 0,9.0957 -2.626671,0 0,-10.8107 c 0.506516,-0.1881 1.136052,-0.3617 1.888601,-0.521 0.767007,-0.1736 1.613621,-0.2604 2.539834,-0.2604 0.173664,0 0.376264,0.015 0.607829,0.043 0.231538,0.015 0.463093,0.043 0.694657,0.086 0.231537,0.028 0.455854,0.072 0.67295,0.1303 0.217068,0.043 0.390734,0.086 0.520993,0.1302 l -0.455872,2.2141"
         style="font-size:40px;font-style:normal;font-variant:normal;font-weight:500;font-stretch:normal;line-height:125%;letter-spacing:0px;word-spacing:0px;fill:#009688;fill-opacity:1;stroke:none;font-family:Ubuntu;-inkscape-font-specification:Ubuntu Medium"
         id="path3006"
         inkscape:connector-curvature="0" />
      <path
         d="m 104.71921,1010.9231 c -1e-5,-1.1867 -0.15197,-2.0405 -0.45586,-2.5615 -0.28946,-0.5354 -0.83939,-0.8032 -1.64982,-0.8032 -0.28945,0 -0.60783,0.022 -0.95515,0.065 -0.34734,0.043 -0.60784,0.078 -0.78149,0.108 l 0,9.161 -2.626673,0 0,-10.9845 c 0.506516,-0.145 1.164988,-0.2821 1.975423,-0.4123 0.8249,-0.1303 1.69323,-0.1954 2.60497,-0.1954 0.78148,0 1.41825,0.1021 1.9103,0.3039 0.50652,0.2026 0.92621,0.4704 1.25907,0.8033 0.15919,-0.1155 0.3618,-0.2389 0.60783,-0.369 0.24601,-0.1303 0.52098,-0.2462 0.8249,-0.3475 0.3039,-0.1154 0.62228,-0.2099 0.95515,-0.2822 0.34732,-0.073 0.69464,-0.1081 1.04199,-0.1081 0.88278,0 1.60638,0.1303 2.17081,0.3908 0.57886,0.246 1.02749,0.6007 1.34589,1.0637 0.33284,0.4486 0.55716,0.9985 0.67295,1.6498 0.13023,0.6368 0.19536,1.3386 0.19537,2.1056 l 0,6.3823 -2.62667,0 0,-5.9697 c -2e-5,-1.1869 -0.14474,-2.0407 -0.43416,-2.5615 -0.28945,-0.5356 -0.84663,-0.8034 -1.67152,-0.8034 -0.4197,0 -0.81768,0.073 -1.19394,0.217 -0.37628,0.1303 -0.65849,0.2607 -0.84661,0.3908 0.11576,0.3619 0.19536,0.7455 0.23879,1.1506 0.0434,0.4053 0.0651,0.8394 0.0651,1.3024 l 0,6.2738 -2.62667,0 0,-5.9697"
         style="font-size:40px;font-style:normal;font-variant:normal;font-weight:500;font-stretch:normal;line-height:125%;letter-spacing:0px;word-spacing:0px;fill:#009688;fill-opacity:1;stroke:none;font-family:Ubuntu;-inkscape-font-specification:Ubuntu Medium"
         id="path3008"
         inkscape:connector-curvature="0" />
    </g>
  </g>
</svg>
